<?xml version="1.0" standalone="no"?>
<!DOCTYPE svg PUBLIC "-//W3C//DTD SVG 20010904//EN"
 "http://www.w3.org/TR/2001/REC-SVG-20010904/DTD/svg10.dtd">
<svg version="1.0" xmlns="http://www.w3.org/2000/svg"
 width="263.000000pt" height="263.000000pt" viewBox="0 0 263.000000 263.000000"
 preserveAspectRatio="xMidYMid meet">
<metadata>
Created by potrace 1.11, written by Peter Selinger 2001-2013
</metadata>
<g transform="translate(0.000000,263.000000) scale(0.100000,-0.100000)"
fill="#000000" stroke="none">
<path d="M1180 2344 c-260 -48 -419 -125 -583 -283 -145 -140 -240 -305 -290
-501 -30 -121 -30 -349 0 -470 49 -194 144 -359 285 -496 138 -134 291 -220
478 -267 121 -30 349 -30 470 0 380 96 667 383 763 763 30 121 30 349 0 470
-95 378 -385 669 -758 761 -78 20 -306 34 -365 23z m378 -78 c163 -45 296
-121 421 -240 131 -126 219 -275 268 -453 24 -86 27 -116 27 -248 0 -132 -3
-162 -27 -248 -30 -110 -88 -233 -152 -322 -50 -69 -169 -187 -237 -233 -65
-44 -202 -112 -210 -104 -4 4 -146 412 -317 907 -170 495 -312 907 -316 916
-5 13 9 19 72 32 119 26 120 26 253 22 93 -3 149 -11 218 -29z m-435 -490
l155 -449 -210 -431 c-115 -237 -210 -432 -212 -433 -9 -10 -144 86 -214 151
-140 133 -229 279 -279 463 -24 86 -27 116 -27 248 0 132 3 162 27 248 28 101
84 224 139 305 46 68 163 187 233 237 72 51 217 126 227 117 4 -4 76 -209 161
-456z m327 -948 c80 -231 146 -424 148 -428 1 -3 -33 -15 -75 -26 -116 -28
-337 -26 -453 5 -47 12 -104 31 -127 41 l-43 19 166 338 c91 186 179 368 196
406 17 37 33 67 37 67 3 0 71 -190 151 -422z"/>
</g>
</svg>
